<svg xmlns="http://www.w3.org/2000/svg" width="1600" height="2028" viewBox="0 0 1600 2028" role="img" aria-label="Use Case · Информационная безопасность"><title>Use Case · Информационная безопасность</title><defs><marker id="open" markerWidth="10" markerHeight="10" refX="9" refY="5" orient="auto"><path d="M 1 1 L 9 5 L 1 9" fill="none" stroke="#17212b" stroke-width="1.3"/></marker></defs><g font-family="Arial, sans-serif"><rect x="0" y="0" width="1600" height="2028" rx="0" fill="#fff" stroke="none"/><rect x="0" y="0" width="1600" height="12" rx="0" fill="#17212b" stroke="none"/><text x="52" y="57" text-anchor="start" font-size="18" fill="#596572" font-weight="400">DEVCONTROL / SERVICE DESK</text><text x="1548" y="57" text-anchor="end" font-size="18" fill="#596572" font-weight="400">TO-BE · 10.09.2026</text><text x="52" y="111" text-anchor="start" font-size="34" fill="#17212b" font-weight="600">Use Case · Информационная безопасность</text><text x="52" y="150" text-anchor="start" font-size="20" fill="#596572" font-weight="400">Функциональные роли целевой модели; назначение права проверяется отдельно.</text><rect x="355" y="205" width="890" height="1676" rx="5" fill="#fbfcfd" stroke="#17212b"/><text x="380" y="238" text-anchor="start" font-size="20" fill="#17212b" font-weight="600">Service Desk · безопасность и права доступа</text><g id="UC-41"><title>UC-41: Зарегистрировать событие, инцидент или нарушение ИБ</title><path d="M 193 305 L 480 322" fill="none" stroke="#8996a1" stroke-width="1.8"/><circle cx="170" cy="279" r="12" fill="white" stroke="#17212b" stroke-width="1.8"/><path d="M 170 291 L 170 325" fill="none" stroke="#17212b" stroke-width="1.8"/><path d="M 147 305 L 193 305" fill="none" stroke="#17212b" stroke-width="1.8"/><path d="M 170 325 L 150 347" fill="none" stroke="#17212b" stroke-width="1.8"/><path d="M 170 325 L 190 347" fill="none" stroke="#17212b" stroke-width="1.8"/><text x="170" y="372" text-anchor="middle" font-size="18" fill="#17212b" font-weight="400">Специалист ИБ</text><path d="M 1120 322 L 1315 322" fill="none" stroke="#8996a1" stroke-width="1.8"/><rect x="1315" y="274" width="230" height="77" rx="4" fill="#f4f6f8" stroke="#17212b"/><text x="1430" y="297" text-anchor="middle" font-size="15" fill="#596572" font-weight="400">«внешняя система»</text><text x="1430" y="324" text-anchor="middle" font-size="19" fill="#17212b" font-weight="400">Внешняя система</text><ellipse cx="800" cy="322" rx="320" ry="54" fill="white" stroke="#264f68" stroke-width="1.8"/><text x="800" y="294" text-anchor="middle" font-size="15" fill="#596572" font-weight="400">UC-41</text><text x="800" y="323" text-anchor="middle" font-size="21" fill="#17212b" font-weight="400">Зарегистрировать событие, инцидент или</text><text x="800" y="347" text-anchor="middle" font-size="21" fill="#17212b" font-weight="400">нарушение ИБ</text></g><g id="UC-42"><title>UC-42: Классифицировать, расследовать и закрыть инцидент</title><path d="M 193 453 L 480 470" fill="none" stroke="#8996a1" stroke-width="1.8"/><circle cx="170" cy="427" r="12" fill="white" stroke="#17212b" stroke-width="1.8"/><path d="M 170 439 L 170 473" fill="none" stroke="#17212b" stroke-width="1.8"/><path d="M 147 453 L 193 453" fill="none" stroke="#17212b" stroke-width="1.8"/><path d="M 170 473 L 150 495" fill="none" stroke="#17212b" stroke-width="1.8"/><path d="M 170 473 L 190 495" fill="none" stroke="#17212b" stroke-width="1.8"/><text x="170" y="520" text-anchor="middle" font-size="18" fill="#17212b" font-weight="400">Специалист ИБ</text><path d="M 1120 470 L 1407 453" fill="none" stroke="#8996a1" stroke-width="1.8"/><circle cx="1430" cy="427" r="12" fill="white" stroke="#17212b" stroke-width="1.8"/><path d="M 1430 439 L 1430 473" fill="none" stroke="#17212b" stroke-width="1.8"/><path d="M 1407 453 L 1453 453" fill="none" stroke="#17212b" stroke-width="1.8"/><path d="M 1430 473 L 1410 495" fill="none" stroke="#17212b" stroke-width="1.8"/><path d="M 1430 473 L 1450 495" fill="none" stroke="#17212b" stroke-width="1.8"/><text x="1430" y="520" text-anchor="middle" font-size="18" fill="#17212b" font-weight="400">Исполнитель ИБ</text><ellipse cx="800" cy="470" rx="320" ry="54" fill="white" stroke="#264f68" stroke-width="1.8"/><text x="800" y="442" text-anchor="middle" font-size="15" fill="#596572" font-weight="400">UC-42</text><text x="800" y="471" text-anchor="middle" font-size="21" fill="#17212b" font-weight="400">Классифицировать, расследовать и закрыть</text><text x="800" y="495" text-anchor="middle" font-size="21" fill="#17212b" font-weight="400">инцидент</text></g><g id="UC-43"><title>UC-43: Подать служебную записку на предоставление доступа</title><path d="M 193 601 L 480 618" fill="none" stroke="#8996a1" stroke-width="1.8"/><circle cx="170" cy="575" r="12" fill="white" stroke="#17212b" stroke-width="1.8"/><path d="M 170 587 L 170 621" fill="none" stroke="#17212b" stroke-width="1.8"/><path d="M 147 601 L 193 601" fill="none" stroke="#17212b" stroke-width="1.8"/><path d="M 170 621 L 150 643" fill="none" stroke="#17212b" stroke-width="1.8"/><path d="M 170 621 L 190 643" fill="none" stroke="#17212b" stroke-width="1.8"/><text x="170" y="668" text-anchor="middle" font-size="18" fill="#17212b" font-weight="400">Инициатор</text><path d="M 1120 618 L 1315 618" fill="none" stroke="#8996a1" stroke-width="1.8"/><rect x="1315" y="570" width="230" height="77" rx="4" fill="#f4f6f8" stroke="#17212b"/><text x="1430" y="593" text-anchor="middle" font-size="15" fill="#596572" font-weight="400">«внешняя система»</text><text x="1430" y="620" text-anchor="middle" font-size="19" fill="#17212b" font-weight="400">1С</text><ellipse cx="800" cy="618" rx="320" ry="54" fill="white" stroke="#264f68" stroke-width="1.8"/><text x="800" y="590" text-anchor="middle" font-size="15" fill="#596572" font-weight="400">UC-43</text><text x="800" y="619" text-anchor="middle" font-size="21" fill="#17212b" font-weight="400">Подать служебную записку на предоставление</text><text x="800" y="643" text-anchor="middle" font-size="21" fill="#17212b" font-weight="400">доступа</text></g><g id="UC-44"><title>UC-44: Рассмотреть и согласовать запрос доступа</title><path d="M 193 749 L 480 766" fill="none" stroke="#8996a1" stroke-width="1.8"/><circle cx="170" cy="723" r="12" fill="white" stroke="#17212b" stroke-width="1.8"/><path d="M 170 735 L 170 769" fill="none" stroke="#17212b" stroke-width="1.8"/><path d="M 147 749 L 193 749" fill="none" stroke="#17212b" stroke-width="1.8"/><path d="M 170 769 L 150 791" fill="none" stroke="#17212b" stroke-width="1.8"/><path d="M 170 769 L 190 791" fill="none" stroke="#17212b" stroke-width="1.8"/><text x="170" y="816" text-anchor="middle" font-size="18" fill="#17212b" font-weight="400">Руководитель</text><path d="M 1120 766 L 1407 749" fill="none" stroke="#8996a1" stroke-width="1.8"/><circle cx="1430" cy="723" r="12" fill="white" stroke="#17212b" stroke-width="1.8"/><path d="M 1430 735 L 1430 769" fill="none" stroke="#17212b" stroke-width="1.8"/><path d="M 1407 749 L 1453 749" fill="none" stroke="#17212b" stroke-width="1.8"/><path d="M 1430 769 L 1410 791" fill="none" stroke="#17212b" stroke-width="1.8"/><path d="M 1430 769 L 1450 791" fill="none" stroke="#17212b" stroke-width="1.8"/><text x="1430" y="816" text-anchor="middle" font-size="18" fill="#17212b" font-weight="400">Специалист ИБ</text><ellipse cx="800" cy="766" rx="320" ry="54" fill="white" stroke="#264f68" stroke-width="1.8"/><text x="800" y="738" text-anchor="middle" font-size="15" fill="#596572" font-weight="400">UC-44</text><text x="800" y="767" text-anchor="middle" font-size="21" fill="#17212b" font-weight="400">Рассмотреть и согласовать запрос доступа</text></g><g id="UC-45"><title>UC-45: Предоставить, изменить или отозвать права</title><path d="M 193 897 L 480 914" fill="none" stroke="#8996a1" stroke-width="1.8"/><circle cx="170" cy="871" r="12" fill="white" stroke="#17212b" stroke-width="1.8"/><path d="M 170 883 L 170 917" fill="none" stroke="#17212b" stroke-width="1.8"/><path d="M 147 897 L 193 897" fill="none" stroke="#17212b" stroke-width="1.8"/><path d="M 170 917 L 150 939" fill="none" stroke="#17212b" stroke-width="1.8"/><path d="M 170 917 L 190 939" fill="none" stroke="#17212b" stroke-width="1.8"/><text x="170" y="964" text-anchor="middle" font-size="18" fill="#17212b" font-weight="400">Исполнитель доступа</text><ellipse cx="800" cy="914" rx="320" ry="54" fill="white" stroke="#264f68" stroke-width="1.8"/><text x="800" y="886" text-anchor="middle" font-size="15" fill="#596572" font-weight="400">UC-45</text><text x="800" y="915" text-anchor="middle" font-size="21" fill="#17212b" font-weight="400">Предоставить, изменить или отозвать права</text></g><g id="UC-46"><title>UC-46: Контролировать временные и привилегированные доступы</title><path d="M 193 1045 L 480 1062" fill="none" stroke="#8996a1" stroke-width="1.8"/><circle cx="170" cy="1019" r="12" fill="white" stroke="#17212b" stroke-width="1.8"/><path d="M 170 1031 L 170 1065" fill="none" stroke="#17212b" stroke-width="1.8"/><path d="M 147 1045 L 193 1045" fill="none" stroke="#17212b" stroke-width="1.8"/><path d="M 170 1065 L 150 1087" fill="none" stroke="#17212b" stroke-width="1.8"/><path d="M 170 1065 L 190 1087" fill="none" stroke="#17212b" stroke-width="1.8"/><text x="170" y="1112" text-anchor="middle" font-size="18" fill="#17212b" font-weight="400">Специалист ИБ</text><path d="M 1120 1062 L 1407 1045" fill="none" stroke="#8996a1" stroke-width="1.8"/><circle cx="1430" cy="1019" r="12" fill="white" stroke="#17212b" stroke-width="1.8"/><path d="M 1430 1031 L 1430 1065" fill="none" stroke="#17212b" stroke-width="1.8"/><path d="M 1407 1045 L 1453 1045" fill="none" stroke="#17212b" stroke-width="1.8"/><path d="M 1430 1065 L 1410 1087" fill="none" stroke="#17212b" stroke-width="1.8"/><path d="M 1430 1065 L 1450 1087" fill="none" stroke="#17212b" stroke-width="1.8"/><text x="1430" y="1112" text-anchor="middle" font-size="18" fill="#17212b" font-weight="400">Руководитель ИБ</text><ellipse cx="800" cy="1062" rx="320" ry="54" fill="white" stroke="#264f68" stroke-width="1.8"/><text x="800" y="1034" text-anchor="middle" font-size="15" fill="#596572" font-weight="400">UC-46</text><text x="800" y="1063" text-anchor="middle" font-size="21" fill="#17212b" font-weight="400">Контролировать временные и привилегированные</text><text x="800" y="1087" text-anchor="middle" font-size="21" fill="#17212b" font-weight="400">доступы</text></g><g id="UC-47"><title>UC-47: Устранить уязвимость и проверить исправление</title><path d="M 193 1193 L 480 1210" fill="none" stroke="#8996a1" stroke-width="1.8"/><circle cx="170" cy="1167" r="12" fill="white" stroke="#17212b" stroke-width="1.8"/><path d="M 170 1179 L 170 1213" fill="none" stroke="#17212b" stroke-width="1.8"/><path d="M 147 1193 L 193 1193" fill="none" stroke="#17212b" stroke-width="1.8"/><path d="M 170 1213 L 150 1235" fill="none" stroke="#17212b" stroke-width="1.8"/><path d="M 170 1213 L 190 1235" fill="none" stroke="#17212b" stroke-width="1.8"/><text x="170" y="1260" text-anchor="middle" font-size="18" fill="#17212b" font-weight="400">Исполнитель ИБ</text><path d="M 1120 1210 L 1407 1193" fill="none" stroke="#8996a1" stroke-width="1.8"/><circle cx="1430" cy="1167" r="12" fill="white" stroke="#17212b" stroke-width="1.8"/><path d="M 1430 1179 L 1430 1213" fill="none" stroke="#17212b" stroke-width="1.8"/><path d="M 1407 1193 L 1453 1193" fill="none" stroke="#17212b" stroke-width="1.8"/><path d="M 1430 1213 L 1410 1235" fill="none" stroke="#17212b" stroke-width="1.8"/><path d="M 1430 1213 L 1450 1235" fill="none" stroke="#17212b" stroke-width="1.8"/><text x="1430" y="1260" text-anchor="middle" font-size="18" fill="#17212b" font-weight="400">Специалист ИБ</text><ellipse cx="800" cy="1210" rx="320" ry="54" fill="white" stroke="#264f68" stroke-width="1.8"/><text x="800" y="1182" text-anchor="middle" font-size="15" fill="#596572" font-weight="400">UC-47</text><text x="800" y="1211" text-anchor="middle" font-size="21" fill="#17212b" font-weight="400">Устранить уязвимость и проверить исправление</text></g><g id="UC-48"><title>UC-48: Провести проверку и выполнить мероприятия</title><path d="M 193 1341 L 480 1358" fill="none" stroke="#8996a1" stroke-width="1.8"/><circle cx="170" cy="1315" r="12" fill="white" stroke="#17212b" stroke-width="1.8"/><path d="M 170 1327 L 170 1361" fill="none" stroke="#17212b" stroke-width="1.8"/><path d="M 147 1341 L 193 1341" fill="none" stroke="#17212b" stroke-width="1.8"/><path d="M 170 1361 L 150 1383" fill="none" stroke="#17212b" stroke-width="1.8"/><path d="M 170 1361 L 190 1383" fill="none" stroke="#17212b" stroke-width="1.8"/><text x="170" y="1408" text-anchor="middle" font-size="18" fill="#17212b" font-weight="400">Специалист ИБ</text><path d="M 1120 1358 L 1407 1341" fill="none" stroke="#8996a1" stroke-width="1.8"/><circle cx="1430" cy="1315" r="12" fill="white" stroke="#17212b" stroke-width="1.8"/><path d="M 1430 1327 L 1430 1361" fill="none" stroke="#17212b" stroke-width="1.8"/><path d="M 1407 1341 L 1453 1341" fill="none" stroke="#17212b" stroke-width="1.8"/><path d="M 1430 1361 L 1410 1383" fill="none" stroke="#17212b" stroke-width="1.8"/><path d="M 1430 1361 L 1450 1383" fill="none" stroke="#17212b" stroke-width="1.8"/><text x="1430" y="1408" text-anchor="middle" font-size="18" fill="#17212b" font-weight="400">Исполнитель ИБ</text><ellipse cx="800" cy="1358" rx="320" ry="54" fill="white" stroke="#264f68" stroke-width="1.8"/><text x="800" y="1330" text-anchor="middle" font-size="15" fill="#596572" font-weight="400">UC-48</text><text x="800" y="1359" text-anchor="middle" font-size="21" fill="#17212b" font-weight="400">Провести проверку и выполнить мероприятия</text></g><g id="UC-49"><title>UC-49: Оценить риск и принять решение об исключении</title><path d="M 193 1489 L 480 1506" fill="none" stroke="#8996a1" stroke-width="1.8"/><circle cx="170" cy="1463" r="12" fill="white" stroke="#17212b" stroke-width="1.8"/><path d="M 170 1475 L 170 1509" fill="none" stroke="#17212b" stroke-width="1.8"/><path d="M 147 1489 L 193 1489" fill="none" stroke="#17212b" stroke-width="1.8"/><path d="M 170 1509 L 150 1531" fill="none" stroke="#17212b" stroke-width="1.8"/><path d="M 170 1509 L 190 1531" fill="none" stroke="#17212b" stroke-width="1.8"/><text x="170" y="1556" text-anchor="middle" font-size="18" fill="#17212b" font-weight="400">Руководитель ИБ</text><path d="M 1120 1506 L 1407 1489" fill="none" stroke="#8996a1" stroke-width="1.8"/><circle cx="1430" cy="1463" r="12" fill="white" stroke="#17212b" stroke-width="1.8"/><path d="M 1430 1475 L 1430 1509" fill="none" stroke="#17212b" stroke-width="1.8"/><path d="M 1407 1489 L 1453 1489" fill="none" stroke="#17212b" stroke-width="1.8"/><path d="M 1430 1509 L 1410 1531" fill="none" stroke="#17212b" stroke-width="1.8"/><path d="M 1430 1509 L 1450 1531" fill="none" stroke="#17212b" stroke-width="1.8"/><text x="1430" y="1556" text-anchor="middle" font-size="18" fill="#17212b" font-weight="400">Специалист ИБ</text><ellipse cx="800" cy="1506" rx="320" ry="54" fill="white" stroke="#264f68" stroke-width="1.8"/><text x="800" y="1478" text-anchor="middle" font-size="15" fill="#596572" font-weight="400">UC-49</text><text x="800" y="1507" text-anchor="middle" font-size="21" fill="#17212b" font-weight="400">Оценить риск и принять решение об исключении</text></g><g id="UC-50"><title>UC-50: Вести реестры ИС, ИСПДн, КИИ, ПО и носителей</title><path d="M 193 1637 L 480 1654" fill="none" stroke="#8996a1" stroke-width="1.8"/><circle cx="170" cy="1611" r="12" fill="white" stroke="#17212b" stroke-width="1.8"/><path d="M 170 1623 L 170 1657" fill="none" stroke="#17212b" stroke-width="1.8"/><path d="M 147 1637 L 193 1637" fill="none" stroke="#17212b" stroke-width="1.8"/><path d="M 170 1657 L 150 1679" fill="none" stroke="#17212b" stroke-width="1.8"/><path d="M 170 1657 L 190 1679" fill="none" stroke="#17212b" stroke-width="1.8"/><text x="170" y="1704" text-anchor="middle" font-size="18" fill="#17212b" font-weight="400">Специалист ИБ</text><ellipse cx="800" cy="1654" rx="320" ry="54" fill="white" stroke="#264f68" stroke-width="1.8"/><text x="800" y="1626" text-anchor="middle" font-size="15" fill="#596572" font-weight="400">UC-50</text><text x="800" y="1655" text-anchor="middle" font-size="21" fill="#17212b" font-weight="400">Вести реестры ИС, ИСПДн, КИИ, ПО и носителей</text></g><g id="UC-51"><title>UC-51: Актуализировать документы ИБ и нормативные требования</title><path d="M 193 1785 L 480 1802" fill="none" stroke="#8996a1" stroke-width="1.8"/><circle cx="170" cy="1759" r="12" fill="white" stroke="#17212b" stroke-width="1.8"/><path d="M 170 1771 L 170 1805" fill="none" stroke="#17212b" stroke-width="1.8"/><path d="M 147 1785 L 193 1785" fill="none" stroke="#17212b" stroke-width="1.8"/><path d="M 170 1805 L 150 1827" fill="none" stroke="#17212b" stroke-width="1.8"/><path d="M 170 1805 L 190 1827" fill="none" stroke="#17212b" stroke-width="1.8"/><text x="170" y="1852" text-anchor="middle" font-size="18" fill="#17212b" font-weight="400">Специалист ИБ</text><path d="M 1120 1802 L 1407 1785" fill="none" stroke="#8996a1" stroke-width="1.8"/><circle cx="1430" cy="1759" r="12" fill="white" stroke="#17212b" stroke-width="1.8"/><path d="M 1430 1771 L 1430 1805" fill="none" stroke="#17212b" stroke-width="1.8"/><path d="M 1407 1785 L 1453 1785" fill="none" stroke="#17212b" stroke-width="1.8"/><path d="M 1430 1805 L 1410 1827" fill="none" stroke="#17212b" stroke-width="1.8"/><path d="M 1430 1805 L 1450 1827" fill="none" stroke="#17212b" stroke-width="1.8"/><text x="1430" y="1852" text-anchor="middle" font-size="18" fill="#17212b" font-weight="400">Руководитель ИБ</text><ellipse cx="800" cy="1802" rx="320" ry="54" fill="white" stroke="#264f68" stroke-width="1.8"/><text x="800" y="1774" text-anchor="middle" font-size="15" fill="#596572" font-weight="400">UC-51</text><text x="800" y="1803" text-anchor="middle" font-size="21" fill="#17212b" font-weight="400">Актуализировать документы ИБ и нормативные</text><text x="800" y="1827" text-anchor="middle" font-size="21" fill="#17212b" font-weight="400">требования</text></g><path d="M 52 1934 L 1548 1934" fill="none" stroke="#d4d9de" stroke-width="1.8"/><text x="52" y="1967" text-anchor="start" font-size="17" fill="#596572" font-weight="400">UML Use Case · Овал — сценарий, линия — участие. Повторные изображения актёра обозначают одну и ту же роль.</text><text x="52" y="1998" text-anchor="start" font-size="16" fill="#596572" font-weight="400">Целевая модель. Схема не подтверждает готовность интеграции или полноту реализованных прав.</text></g></svg>